<?xml version="1.0" encoding="UTF-8" standalone="no"?>
<!-- Created with Inkscape (http://www.inkscape.org/) -->

<svg
   xmlns:dc="http://purl.org/dc/elements/1.1/"
   xmlns:cc="http://creativecommons.org/ns#"
   xmlns:rdf="http://www.w3.org/1999/02/22-rdf-syntax-ns#"
   xmlns:svg="http://www.w3.org/2000/svg"
   xmlns="http://www.w3.org/2000/svg"
   xmlns:inkscape="http://www.inkscape.org/namespaces/inkscape"
   version="1.1"
   width="201.25"
   height="201.25"
   id="svg2"
   xml:space="preserve"><metadata
     id="metadata8"><rdf:RDF><cc:Work
         rdf:about=""><dc:format>image/svg+xml</dc:format><dc:type
           rdf:resource="http://purl.org/dc/dcmitype/StillImage" /></cc:Work></rdf:RDF></metadata><defs
     id="defs6" /><g
     transform="matrix(1.25,0,0,-1.25,0,201.25)"
     id="g10"><g
       transform="scale(0.1,0.1)"
       id="g12"><path
         d="m 2.59375,2.57422 1602.36995,0 0,1602.40998 -1602.36995,0 0,-1602.40998 z"
         inkscape:connector-curvature="0"
         id="path14"
         style="fill:#231f20;fill-opacity:1;fill-rule:evenodd;stroke:none" /><path
         d="m 412.492,768.793 c 0,-75.379 20.055,-84.297 106.41,-87.613 l 0,-27.325 -342.879,0 0,27.325 c 71.446,3.316 91.696,12.234 91.696,87.613 l 0,493.867 c 0,75.38 -20.25,84.16 -89.598,87.28 l 0,27.68 604.563,0 4.25,-159.73 -29.782,0 c -25.574,80.9 -53.269,106.46 -194.777,106.46 l -109.668,0 c -32.871,0 -40.215,-7.31 -40.215,-37.15 l 0,-229.1 54.016,0 c 112.828,0 137.351,20.36 151,96.05 l 27.66,0 0,-255.736 -27.66,0 c -14.738,85.488 -57.449,106.516 -151,106.516 l -54.016,0 0,-236.137"
         inkscape:connector-curvature="0"
         id="path16"
         style="fill:#ffffff;fill-opacity:1;fill-rule:evenodd;stroke:none" /><path
         d="m 1467.28,1377.62 -634.303,0 -14.864,-159.79 36.543,0 c 23.129,78.28 57.399,106.52 133.641,106.52 l 89.483,0 0,-555.557 c 0,-75.379 -20.28,-84.297 -102.237,-87.613 l 0,-27.325 349.127,0 0,27.325 c -81.95,3.316 -102.17,12.234 -102.17,87.613 l 0,555.557 89.29,0 c 76.5,0 110.6,-28.24 133.83,-106.52 l 36.3,0 -14.64,159.79"
         inkscape:connector-curvature="0"
         id="path18"
         style="fill:#ffffff;fill-opacity:1;fill-rule:evenodd;stroke:none" /></g></g></svg>