<?xml version="1.0" encoding="utf-8"?>
<!DOCTYPE svg PUBLIC "-//W3C//DTD SVG 1.1//EN" "http://www.w3.org/Graphics/SVG/1.1/DTD/svg11.dtd">
<svg version="1.1" id="Layer_1" xmlns="http://www.w3.org/2000/svg" xmlns:xlink="http://www.w3.org/1999/xlink" x="0px" y="0px"
	 width="376px" height="54px" viewBox="0 0 376 54" enable-background="new 0 0 376 54" xml:space="preserve">
<g class="logoroll">
	<path fill="#BFA559" d="M365.559,34.095c5.118,0,7.585-2.464,7.585-7.582V15.898c0-1.516-1.233-4.265-2.277-5.306l-7.58-7.487
		c-1.045-1.045-3.885-2.181-5.308-2.181h-45.494c-1.42,0-4.265,1.136-5.305,2.181l-7.584,7.487c-1.043,1.041-2.274,3.79-2.274,5.306
		c0-1.516-1.231-4.265-2.274-5.306l-7.583-7.487c-1.04-1.045-3.884-2.181-5.307-2.181h-43.552V0.923h-15.208v0.001h-15.165
		c1.422,0,4.265,1.136,5.305,2.181l7.582,7.487c1.044,1.041,2.278,3.79,2.278,5.306v30.518c0,5.12-2.466,7.585-7.585,7.585h7.585
		h18.952v-9.669h47.39c5.118,0,7.58-2.464,7.58-7.583v2.087c0,1.517,1.137,4.361,2.181,5.402l7.58,7.58
		c1.044,1.044,3.887,2.183,5.402,2.183h58.48V39.308h-51.467l-3.219-3.223v-1.99C316.277,34.095,365.559,34.095,365.559,34.095z
		 M316.279,18.647l3.127-3.033h31.75l3.033,2.939v2.273h-37.91V18.647z M278.368,29.167h-36.017V16.089h32.984l3.033,2.938V29.167z"
		/>
	<polygon fill="#BFA559" points="166.532,36.085 169.754,39.308 196.161,39.308 201.219,39.308 204.444,39.308 204.444,36.085
		204.444,34.797 204.444,34.095 166.532,34.095 	"/>
	<path fill="#BFA559" d="M149.754,15.614V0.924H128.62v18.955H93.932V0.924H74.977v27.485c0-5.118-2.464-7.583-7.58-7.583H20.482
		v-2.18l3.126-3.033H72.08V0.924H17.165c-1.423,0-4.266,1.136-5.307,2.181l-7.583,7.487C3.232,11.632,2,14.382,2,15.898v10.615
		c0,5.118,2.464,7.582,7.583,7.582h46.913v2.087l-3.223,3.221H4.178V54h55.635c1.517,0,4.36-1.139,5.404-2.183l7.583-7.58
		c1.043-1.04,2.179-3.885,2.179-5.402V54h18.955V35.041h34.687V54h18.956h15.163c-1.515,0-4.359-1.139-5.401-2.183l-7.582-7.58
		c-1.042-1.04-2.18-3.885-2.18-5.402V28.409c0-5.118,2.465-7.583,7.584-7.583h49.285v-2.273l-3.034-2.939
		C201.412,15.614,149.754,15.614,149.754,15.614z"/>
</g>
</svg>
